<svg xmlns="http://www.w3.org/2000/svg" version="1.1" xmlns:xlink="http://www.w3.org/1999/xlink" xmlns:svgjs="http://svgjs.dev/svgjs" width="1500" height="1500" viewBox="0 0 1500 1500"><rect width="1500" height="1500" fill="#ffffff"></rect><g transform="matrix(0.6666666666666666,0,0,0.6666666666666666,249.39393939393938,649.4195713319765)"><svg viewBox="0 0 396 79" data-background-color="#ffffff" preserveAspectRatio="xMidYMid meet" height="299" width="1500" xmlns="http://www.w3.org/2000/svg" xmlns:xlink="http://www.w3.org/1999/xlink"><g id="tight-bounds" transform="matrix(1,0,0,1,0.2400000000000091,0.36214313431702294)"><svg viewBox="0 0 395.52 78.27571566845978" height="78.27571566845978" width="395.52"><g><svg viewBox="0 0 395.52 78.27571566845978" height="78.27571566845978" width="395.52"><g><svg viewBox="0 0 395.52 78.27571566845978" height="78.27571566845978" width="395.52"><g><svg viewBox="0 0 395.52 78.27571566845978" height="78.27571566845978" width="395.52"><g id="textblocktransform"><svg viewBox="0 0 395.52 78.27571566845978" height="78.27571566845978" width="395.52" id="textblock"><g><svg viewBox="0 0 395.52 78.27571566845978" height="78.27571566845978" width="395.52"><g transform="matrix(1,0,0,1,0,0)"><svg width="395.52" viewBox="-1.85 -49.300889805524996 252.63 50.000889805525" height="78.27571566845978" data-palette-color="#0074d9"><path d="M-0.4 0.7L-0.4 0.7Q-1.05 0.7-1.45 0.1-1.85-0.5-1.85-1.45L-1.85-1.45Q-1.85-3.6-0.05-3.6L-0.05-3.6Q1.4-3.6 2.9-4.08 4.4-4.55 6.4-5.7L6.4-5.7Q4.45-9.1 4.45-13.7L4.45-13.7Q4.45-16.8 5.6-19.18 6.75-21.55 8.8-22.93 10.85-24.3 13.45-24.3L13.45-24.3Q15.65-24.3 17.35-23.28 19.05-22.25 20-20.45 20.95-18.65 20.95-16.3L20.95-16.3Q20.95-13.1 19.07-10.45 17.2-7.8 12.75-4.7L12.75-4.7Q14.35-3.55 17.05-3.55L17.05-3.55Q17.75-3.55 18.15-2.95 18.55-2.35 18.55-1.35L18.55-1.35Q18.55-0.4 18.1 0.15 17.65 0.7 16.8 0.7L16.8 0.7Q14.4 0.7 12.3-0.1 10.2-0.9 8.8-2.3L8.8-2.3Q4 0.7-0.4 0.7ZM8.8-14.1L8.8-14.1Q8.8-10.15 10.2-7.8L10.2-7.8Q13.45-10.05 15.03-12.2 16.6-14.35 16.6-16.3L16.6-16.3Q16.6-18.1 15.73-19.13 14.85-20.15 13.3-20.15L13.3-20.15Q11.35-20.15 10.08-18.4 8.8-16.65 8.8-14.1ZM22.05-3.6L22.05-3.6Q23.65-3.6 25.22-5.15 26.8-6.7 27.95-9.35L27.95-9.35Q27.75-10.5 27.75-11.7L27.75-11.7Q27.75-15.4 29.15-18.23 30.55-21.05 33.02-22.68 35.5-24.3 38.7-24.3L38.7-24.3Q41.1-24.3 43.07-23.38 45.05-22.45 46.3-20.7L46.3-20.7Q45.7-18.65 43.4-17.75L43.4-17.75Q41.75-20 38.85-20L38.85-20Q35.95-20 34.17-17.82 32.4-15.65 32.4-11.95L32.4-11.95Q32.4-8.15 34.62-5.85 36.85-3.55 40.95-3.55L40.95-3.55Q41.6-3.55 42.02-2.93 42.45-2.3 42.45-1.35L42.45-1.35Q42.45-0.4 41.97 0.15 41.5 0.7 40.65 0.7L40.65 0.7Q37.1 0.7 34.35-0.6 31.6-1.9 29.95-4.25L29.95-4.25Q26.85 0.7 21.7 0.7L21.7 0.7Q21.05 0.7 20.65 0.1 20.25-0.5 20.25-1.45L20.25-1.45Q20.25-3.6 22.05-3.6ZM45.6 0.7L45.6 0.7Q44.95 0.7 44.55 0.1 44.15-0.5 44.15-1.45L44.15-1.45Q44.15-2.45 44.62-3.03 45.1-3.6 45.9-3.6L45.9-3.6Q48.1-3.6 50.12-5.58 52.15-7.55 54.65-12.2L54.65-12.2 54.65-38.95Q54.65-43.95 56.77-46.65 58.9-49.35 62.95-49.3L62.95-49.3Q66.65-49.25 68.72-46.5 70.8-43.75 70.8-39.35L70.8-39.35Q70.8-35.8 69.5-31.45 68.2-27.1 66.05-23.1L66.05-23.1Q66.55-23.15 67.09-23.15L67.09-23.15Q70.84-23.15 73.07-20.5 75.3-17.85 75.3-13.4L75.3-13.4 75.3-9.1Q75.3-6.2 76.02-4.9 76.75-3.6 78.45-3.6L78.45-3.6Q79.25-3.6 79.59-2.98 79.95-2.35 79.95-1.4L79.95-1.4Q79.95-0.45 79.47 0.13 79 0.7 78.15 0.7L78.15 0.7Q74.55 0.7 72.62-1.63 70.7-3.95 70.7-8.2L70.7-8.2 70.7-13.5Q70.7-16.05 69.57-17.48 68.45-18.9 66.4-18.9L66.4-18.9Q64.4-18.9 62.8-17.57 61.2-16.25 60.25-13.95 59.3-11.65 59.25-8.65L59.25-8.65 59.25 0Q58.75 0.15 58.15 0.25 57.55 0.35 57 0.35L57 0.35Q55.85 0.35 54.65 0L54.65 0 54.65-4.1Q52.6-1.45 50.47-0.38 48.35 0.7 45.6 0.7ZM59.1-39L59.1-39 59.1-19.7Q61.35-23.15 62.97-26.65 64.59-30.15 65.47-33.43 66.34-36.7 66.34-39.4L66.34-39.4Q66.34-42.2 65.42-43.68 64.5-45.15 62.75-45.15L62.75-45.15Q59.1-45.15 59.1-39ZM78.49-3.6L78.49-3.6Q80.14-3.6 81.72-5.18 83.29-6.75 84.39-9.4L84.39-9.4Q84.19-10.6 84.19-11.85L84.19-11.85Q84.19-15.45 85.74-18.25 87.29-21.05 89.97-22.68 92.64-24.3 95.99-24.3L95.99-24.3Q99.34-24.3 101.99-22.68 104.64-21.05 106.17-18.25 107.69-15.45 107.69-11.85L107.69-11.85Q107.69-8.25 106.17-5.4 104.64-2.55 102.02-0.93 99.39 0.7 95.99 0.7L95.99 0.7Q92.94 0.7 90.47-0.63 87.99-1.95 86.39-4.25L86.39-4.25Q83.29 0.7 78.14 0.7L78.14 0.7Q77.49 0.7 77.09 0.1 76.69-0.5 76.69-1.45L76.69-1.45Q76.69-3.6 78.49-3.6ZM95.94-3.6L95.94-3.6Q99.14-3.6 101.07-5.85 102.99-8.1 102.99-11.85L102.99-11.85Q102.99-13.7 102.44-15.25L102.44-15.25Q99.44-15.35 97.02-16.45 94.59-17.55 93.19-19.45L93.19-19.45Q91.19-18.6 90.04-16.57 88.89-14.55 88.89-11.75L88.89-11.75Q88.89-8.1 90.82-5.85 92.74-3.6 95.94-3.6ZM124.84 0.7L124.84 0.7Q124.19 0.7 123.79 0.1 123.39-0.5 123.39-1.45L123.39-1.45Q123.39-3.6 125.19-3.6L125.19-3.6Q126.79-3.6 128.06-5.23 129.34-6.85 130.29-10.65L130.29-10.65 131.79-16.5Q133.89-24.3 139.79-24.3L139.79-24.3Q141.94-24.3 143.46-23.08 144.99-21.85 145.64-19.7L145.64-19.7Q146.79-21.9 148.66-23.1 150.54-24.3 152.89-24.3L152.89-24.3Q157.79-24.3 159.54-19.25L159.54-19.25Q160.74-21.65 162.79-22.98 164.84-24.3 167.44-24.3L167.44-24.3Q170.99-24.3 172.89-22.05 174.79-19.8 174.79-15.7L174.79-15.7 174.79-8.75Q174.79-6 175.51-4.8 176.24-3.6 177.84-3.6L177.84-3.6Q178.54-3.6 178.91-3 179.29-2.4 179.29-1.4L179.29-1.4Q179.29-0.6 178.86 0.05 178.44 0.7 177.49 0.7L177.49 0.7Q170.24 0.7 170.24-8.2L170.24-8.2 170.24-14.6Q170.24-17.2 169.29-18.6 168.34-20 166.59-20L166.59-20Q163.94-20 162.41-16.98 160.89-13.95 160.89-8.6L160.89-8.6 160.89 0Q160.39 0.15 159.79 0.25 159.19 0.35 158.64 0.35L158.64 0.35Q157.44 0.35 156.34 0L156.34 0 156.34-13.9Q156.34-16.85 155.31-18.43 154.29-20 152.29-20L152.29-20Q150.44-20 149.09-18.57 147.74-17.15 146.96-14.58 146.19-12 146.19-8.6L146.19-8.6 146.19 0Q145.69 0.15 145.09 0.25 144.49 0.35 143.94 0.35L143.94 0.35Q142.69 0.35 141.69 0L141.69 0 141.69-15.95Q141.69-20 139.39-20L139.39-20Q138.34-20 137.59-19.05 136.84-18.1 136.29-16L136.29-16 134.44-8.8Q133.14-3.85 130.84-1.58 128.54 0.7 124.84 0.7ZM177.84-3.6L177.84-3.6Q179.54-3.6 181.16-5.28 182.79-6.95 183.89-9.8L183.89-9.8Q183.84-10.5 183.84-11.2L183.84-11.2Q183.84-15 185.34-17.95 186.84-20.9 189.41-22.6 191.99-24.3 195.29-24.3L195.29-24.3Q197.04-24.3 198.74-23.63 200.44-22.95 201.59-21.8L201.59-21.8 201.59-23.85Q202.04-24 202.64-24.1 203.24-24.2 203.89-24.2L203.89-24.2Q205.09-24.2 206.14-23.85L206.14-23.85 206.14-9.2Q206.14-6.55 206.96-5.08 207.79-3.6 209.74-3.6L209.74-3.6Q210.59-3.6 210.89-2.9 211.19-2.2 211.19-1.4L211.19-1.4Q211.19-0.6 210.76 0.05 210.34 0.7 209.39 0.7L209.39 0.7Q204.49 0.7 202.84-3.7L202.84-3.7Q201.39-1.65 199.21-0.48 197.04 0.7 194.39 0.7L194.39 0.7Q191.49 0.7 189.26-0.58 187.04-1.85 185.64-4.1L185.64-4.1Q182.54 0.7 177.49 0.7L177.49 0.7Q176.84 0.7 176.44 0.1 176.04-0.5 176.04-1.45L176.04-1.45Q176.04-3.6 177.84-3.6ZM188.49-11.2L188.49-11.2Q188.49-7.65 190.11-5.63 191.74-3.6 194.59-3.6L194.59-3.6Q197.74-3.6 199.66-5.75 201.59-7.9 201.59-11.4L201.59-11.4 201.59-17Q200.59-18.35 199.04-19.18 197.49-20 195.84-20L195.84-20Q193.69-20 192.04-18.85 190.39-17.7 189.44-15.73 188.49-13.75 188.49-11.2ZM209.73-3.6L209.73-3.6Q210.98-3.6 212.61-4.35 214.23-5.1 215.78-6.9 217.33-8.7 218.33-11.78 219.33-14.85 219.33-19.5L219.33-19.5 219.33-24.3 215.63-24.3Q215.28-25.1 215.28-26.3 215.28-27.5 215.63-28.3L215.63-28.3 219.33-28.3 219.33-37.15Q220.28-37.5 221.63-37.5L221.63-37.5Q222.83-37.5 223.93-37.15L223.93-37.15 223.93-28.3 231.38-28.3Q231.78-27.5 231.78-26.3 231.78-25.1 231.38-24.3L231.38-24.3 223.93-24.3 223.93-13.95Q223.93-8.95 225.46-6.28 226.98-3.6 229.78-3.6L229.78-3.6Q231.23-3.6 231.23-1.4L231.23-1.4Q231.23-0.45 230.76 0.13 230.28 0.7 229.43 0.7L229.43 0.7Q226.18 0.7 223.96-1.15 221.73-3 220.68-6.3L220.68-6.3Q218.58-2.7 215.53-1 212.48 0.7 209.38 0.7L209.38 0.7Q208.73 0.7 208.33 0.08 207.93-0.55 207.93-1.45L207.93-1.45Q207.93-2.4 208.38-3 208.83-3.6 209.73-3.6ZM229.43 0.7L229.43 0.7Q228.78 0.7 228.38 0.1 227.98-0.5 227.98-1.45L227.98-1.45Q227.98-3.6 229.78-3.6L229.78-3.6Q231.23-3.6 232.73-4.08 234.23-4.55 236.23-5.7L236.23-5.7Q234.28-9.1 234.28-13.7L234.28-13.7Q234.28-16.8 235.43-19.18 236.58-21.55 238.63-22.93 240.68-24.3 243.28-24.3L243.28-24.3Q245.48-24.3 247.18-23.28 248.88-22.25 249.83-20.45 250.78-18.65 250.78-16.3L250.78-16.3Q250.78-13.1 248.91-10.45 247.03-7.8 242.58-4.7L242.58-4.7Q244.18-3.55 246.88-3.55L246.88-3.55Q247.58-3.55 247.98-2.95 248.38-2.35 248.38-1.35L248.38-1.35Q248.38-0.4 247.93 0.15 247.48 0.7 246.63 0.7L246.63 0.7Q244.23 0.7 242.13-0.1 240.03-0.9 238.63-2.3L238.63-2.3Q233.83 0.7 229.43 0.7ZM238.63-14.1L238.63-14.1Q238.63-10.15 240.03-7.8L240.03-7.8Q243.28-10.05 244.86-12.2 246.43-14.35 246.43-16.3L246.43-16.3Q246.43-18.1 245.56-19.13 244.68-20.15 243.13-20.15L243.13-20.15Q241.18-20.15 239.91-18.4 238.63-16.65 238.63-14.1Z" opacity="1" transform="matrix(1,0,0,1,0,0)" fill="#000000" class="wordmark-text-0" data-fill-palette-color="primary" id="text-0"></path></svg></g></svg></g></svg></g></svg></g><g></g></svg></g></svg></g><defs></defs></svg><rect width="395.52" height="78.27571566845978" fill="none" stroke="none" visibility="hidden"></rect></g></svg></g></svg>